# xmcd CD database file
#
# Track frame offsets:
#	182
#	19002
#	40907
#	62107
#	77235
#	97750
#	115500
#	139650
#	157387
#	179555
#	202000
#	217870
#
# Disc length: 3140 seconds
#
# Revision: 23
# Processed by: cddbd v1.5.2PL0 Copyright (c) Steve Scherf et al.
# Submitted via: CDex 1.70beta2
#
DISCID=a20c420c
DTITLE=Björk - Debut
DYEAR=1993
DGENRE=Jazz
TTITLE0=Human Behaviour
TTITLE1=Crying
TTITLE2=Venus As A Boy
TTITLE3=There's More To Life Than This (Live At The Milk Bar Toilets)
TTITLE4=Like Someone In Love
TTITLE5=Big Time Sensuality
TTITLE6=One Day
TTITLE7=Aeroplane
TTITLE8=Come To Me
TTITLE9=Violently Happy
TTITLE10=The Anchor Song
TTITLE11=Play Dead
EXTD=YEAR: 1993
EXTT0=
EXTT1=
EXTT2=
EXTT3=
EXTT4=
EXTT5=
EXTT6=
EXTT7=
EXTT8=
EXTT9=
EXTT10=
EXTT11=
PLAYORDER=
